<?xml version="1.0" encoding="UTF-8" standalone="no"?>
<!-- Created with Inkscape (http://www.inkscape.org/) -->

<svg
   width="71.748848mm"
   height="56.096329mm"
   viewBox="0 -3 71.748848 56.096329"
   version="1.1"
   id="svg5"
   inkscape:version="1.1.1 (3bf5ae0d25, 2021-09-20)"
   sodipodi:docname="NDFinal_Cleanup_Borderless.svg"
   inkscape:export-filename="C:\Users\User\ND23Final.png"
   inkscape:export-xdpi="96"
   inkscape:export-ydpi="96"
   xmlns:inkscape="http://www.inkscape.org/namespaces/inkscape"
   xmlns:sodipodi="http://sodipodi.sourceforge.net/DTD/sodipodi-0.dtd"
   xmlns="http://www.w3.org/2000/svg"
   xmlns:svg="http://www.w3.org/2000/svg">
  <sodipodi:namedview
     id="namedview7"
     pagecolor="#ffffff"
     bordercolor="#666666"
     borderopacity="1.0"
     inkscape:pageshadow="2"
     inkscape:pageopacity="0.0"
     inkscape:pagecheckerboard="0"
     inkscape:document-units="mm"
     showgrid="false"
     inkscape:zoom="1.4142136"
     inkscape:cx="42.072853"
     inkscape:cy="-18.384776"
     inkscape:window-width="1284"
     inkscape:window-height="1080"
     inkscape:window-x="0"
     inkscape:window-y="0"
     inkscape:window-maximized="0"
     inkscape:current-layer="layer1"
     showguides="true">
    <inkscape:grid
       type="xygrid"
       id="grid33360"
       originx="-59.376607"
       originy="-38.281539" />
  </sodipodi:namedview>
  <defs
     id="defs2" />
  <g
     inkscape:label="Layer 1"
     inkscape:groupmode="layer"
     id="layer1"
     style="display:inline"
     transform="translate(-59.37661,-38.281538)">
    <path
       style="fill:#22701e;fill-opacity:1;stroke:none;stroke-width:0.059626"
       d=""
       id="path970"
       transform="scale(0.26458333)" />
    <path
       style="fill:#22701e;fill-opacity:1;stroke-width:0.119252"
       d=""
       id="path3971"
       transform="scale(0.26458333)" />
    <path
       style="display:inline;fill:#89c501;fill-opacity:1;stroke:#000000;stroke-width:0;stroke-linecap:round;stroke-linejoin:round;stroke-miterlimit:4;stroke-dasharray:none;stroke-opacity:0;paint-order:stroke markers fill"
       d="m 96.837499,80.238714 11.525721,-8.299337 c 8.64542,-6.225319 11.48987,-8.306123 11.49303,-8.44159 0.002,-0.09858 -0.0861,-0.178169 -0.17195,-0.252352 -0.0859,-0.07418 -5.29594,-3.713748 -11.49646,-8.137337 l -11.350341,-8.097587 -0.0037,-1.899913 c -0.0051,-2.585321 -0.10485,-6.12438 -0.02884,-6.091994 0.03681,0.01567 4.238781,3.320212 9.024421,6.757267 4.78564,3.437051 12.32555,8.839665 16.75533,12.005803 4.42979,3.16614 8.05298,5.782481 8.05153,5.81409 -0.002,0.05319 -33.847198,24.292592 -33.847198,24.292592 0.06484,-2.60418 0.04849,-5.014907 0.04849,-7.649642 z"
       id="path25469"
       sodipodi:nodetypes="cscsscssssccc" />
    <path
       style="display:inline;fill:#22701e;stroke:#000000;stroke-width:0;stroke-linecap:round;stroke-linejoin:round;stroke-miterlimit:4;stroke-dasharray:none;paint-order:stroke markers fill;stroke-opacity:0"
       d="m 96.769405,49.901027 c 7.468285,5.405859 0,0 7.468285,5.405859 l -0.0214,16.752241 -7.432514,5.33866 c -0.124665,-9.163457 0.165729,-18.334215 -0.0146,-27.49676 z"
       id="path3721"
       sodipodi:nodetypes="cccccc" />
  </g>
  <g
     inkscape:groupmode="layer"
     id="layer2"
     inkscape:label="Layer 2"
     style="display:inline"
     transform="translate(-59.37661,-38.281538)">
    <path
       style="display:inline;fill:#22701e;fill-opacity:1;stroke:#000000;stroke-width:0;stroke-linecap:round;stroke-linejoin:bevel;stroke-miterlimit:4;stroke-dasharray:none;stroke-opacity:1;paint-order:stroke markers fill"
       d="M 76.826634,69.057923 68.181997,58.836122 c 0.182951,-12.05389 -0.02972,-0.01464 0.182951,-12.05389 0.06835,0.06755 4.226457,5.435647 8.831094,10.884838 l 8.697555,10.292808 c -0.09347,11.838332 0,0 -0.09347,11.838332 -0.02313,0 -4.435608,-5.140443 -8.973476,-10.740287 z"
       id="path108579"
       sodipodi:nodetypes="cccsccsc" />
    <path
       style="display:inline;fill:#89c501;fill-opacity:1;stroke:#000000;stroke-width:0;stroke-linecap:round;stroke-linejoin:round;stroke-miterlimit:4;stroke-dasharray:none;stroke-opacity:0;paint-order:stroke markers fill"
       d="m 59.898281,63.270071 -0.09922,-24.180794 4.112467,3.953083 4.453419,3.739872 -0.154034,9.459965 c -0.08422,5.172482 -0.113348,12.683716 -0.116538,16.729436 l -0.0058,7.355865 -3.774546,3.234045 c -2.075997,1.778723 -3.918815,3.338676 -4.095147,3.466563 l -0.403288,0.486165 z"
       id="path112126"
       sodipodi:nodetypes="ccccsscsscc" />
    <path
       style="display:inline;fill:#89c501;fill-opacity:1;stroke:#000000;stroke-width:0;stroke-linecap:round;stroke-linejoin:round;stroke-miterlimit:4;stroke-dasharray:none;stroke-opacity:0;paint-order:stroke markers fill"
       d="m 85.854184,63.241005 -0.03941,-23.973386 4.107376,3.851138 4.10738,3.851136 -0.006,16.678802 -0.006,16.678803 -3.77455,3.234045 c -2.07599,1.778723 -3.804412,3.520364 -3.966983,3.629721 l -0.448749,0.301859 z"
       id="path112165"
       sodipodi:nodetypes="ccccccsscc" />
    <path
       style="display:inline;fill:none;stroke:#000000;stroke-width:0.514179;stroke-linecap:butt;stroke-linejoin:round;stroke-miterlimit:4;stroke-dasharray:none;stroke-opacity:0"
       d="m 85.562866,38.538594 8.731254,8.243638 v 33.723974 l -8.731254,7.494211 z"
       id="path47313" />
    <path
       style="display:inline;fill:none;stroke:#000000;stroke-width:0.514179;stroke-linecap:butt;stroke-linejoin:round;stroke-miterlimit:4;stroke-dasharray:none;stroke-opacity:0"
       d="m 59.633699,38.538594 8.731249,8.243638 v 33.723974 l -8.731249,7.494221 z"
       id="path47313-0" />
  </g>
</svg>
