<?xml version="1.0" encoding="UTF-8"?>
<svg width="246px" height="240px" viewBox="0 0 246 240" version="1.1" xmlns="http://www.w3.org/2000/svg" xmlns:xlink="http://www.w3.org/1999/xlink">
    <!-- Generator: Sketch 59 (86127) - https://sketch.com -->
    <title>GLA-logo</title>
    <desc>Created with Sketch.</desc>
    <defs>
        <linearGradient x1="0%" y1="2.54987757%" x2="101.999998%" y2="98.399124%" id="linearGradient-1">
            <stop stop-color="#3023AE" offset="0%"></stop>
            <stop stop-color="#C86DD7" offset="100%"></stop>
        </linearGradient>
    </defs>
    <g id="Page-1" stroke="none" stroke-width="1" fill="none" fill-rule="evenodd">
        <g id="GLA-Logo-4" transform="translate(-190.000000, -128.000000)" fill="url(#linearGradient-1)">
            <g id="GLA-Summit-Logo-and-Text">
                <path d="M342.572181,271.891878 C345.596054,252.799896 363.524497,239.77412 382.616479,242.797993 C401.708462,245.821866 414.734238,263.750308 411.710365,282.842291 C407.121621,311.814482 392.753634,334.344212 368.606405,350.431481 C346.747421,364.856242 322.977981,370.034974 297.298084,365.967678 C313.991176,359.502685 326.612311,348.002142 335.16149,331.466048 C347.985258,306.661906 341.236064,280.32779 342.572181,271.891878 Z M235.226935,204.266805 C232.479237,221.955943 236.128432,238.636438 246.174521,254.308292 C261.243653,277.816071 287.424263,285.138156 294.061919,290.513223 C309.084124,302.677965 311.400556,324.71734 299.235814,339.739545 C287.071072,354.761751 265.031697,357.078182 250.009492,344.91344 C227.21321,326.453376 214.885885,302.745469 213.027516,273.789721 C211.464798,247.646905 218.864605,224.4726 235.226935,204.266805 Z M405.443404,317.792214 C411.351993,310.495714 422.056832,309.37059 429.353332,315.279179 C436.649832,321.187768 437.774955,331.892607 431.866367,339.189107 C425.957778,346.485607 415.252938,347.610731 407.956439,341.702142 C400.659939,335.793553 399.534815,325.088713 405.443404,317.792214 Z M200.912329,312.232519 C209.677567,308.86786 219.510792,313.245894 222.875451,322.011132 C226.240111,330.776369 221.862077,340.609594 213.096839,343.974254 C204.331601,347.338914 194.498376,342.96088 191.133717,334.195642 C187.769057,325.430404 192.147091,315.597179 200.912329,312.232519 Z M277.104736,173.840802 C304.489762,163.328675 331.185074,164.506852 357.190672,177.375331 C380.612373,189.093385 396.982007,207.088958 406.299574,231.362049 C392.35418,220.137904 376.083849,214.957953 357.488582,215.822194 C329.595682,217.118555 310.164265,236.130587 302.190492,239.191431 C284.144414,246.118672 263.89954,237.105073 256.972299,219.058995 C250.045059,201.012917 259.058658,180.768042 277.104736,173.840802 Z M296.374422,142.3431 C297.84316,133.069851 306.551261,126.743046 315.824509,128.211784 C325.097758,129.680522 331.424563,138.388623 329.955825,147.661872 C328.487087,156.93512 319.778986,163.261926 310.505737,161.793188 C301.232489,160.324449 294.905683,151.616349 296.374422,142.3431 Z" id="GLA-logo"></path>
            </g>
        </g>
    </g>
</svg>