<?xml version="1.0" encoding="utf-8"?>
<svg width="1738.9774px" height="1738.9844px" viewBox="0 0 1738.9774 1738.9844" version="1.1" xmlns:xlink="http://www.w3.org/1999/xlink" xmlns="http://www.w3.org/2000/svg">
  <defs>
    <linearGradient gradientUnits="userSpaceOnUse" x1="371.7391" y1="356.52173" x2="1297.673" y2="1428.1149" id="gradient_1">
      <stop offset="0%" stop-color="#5A98F2" />
      <stop offset="100%" stop-color="#407BFF" />
    </linearGradient>
  </defs>
  <path d="M878.968 0.0505676C762.66 -1.20386 647.283 20.8912 539.668 65.0276C137.046 230.156 -81.4867 667.512 28.2076 1088.63C137.9 1509.75 542.037 1784.91 974.058 1732.63C1403.26 1680.69 1728.65 1321.44 1738.82 890.083L1738.86 890.083L1738.86 888.244C1738.91 886.03 1738.95 883.815 1738.98 881.597L1738.86 881.596L1738.86 793.503L1672.16 793.503L1672.16 793.52L1010.56 793.52L1010.56 630.39L1010.56 630.4L613.268 860.5L1010.56 1090.6L1010.56 934.31L1599.34 934.31C1565.2 1307.44 1254.78 1598.55 877.591 1599.55C476.739 1600.3 150.969 1273.39 149.478 868.879C147.987 464.364 471.336 135.014 872.182 132.759C1133.95 131.659 1376.08 272.707 1506.06 502.009L1622.58 434.738C1468.94 168.625 1186.24 3.3714 878.978 0.0582275L878.968 0.0505676ZM895.158 243.07C832.991 240.671 770.82 247.717 710.727 263.972C439.256 337.404 250.487 585.747 250.488 869.462C250.488 1153.18 439.256 1401.52 710.728 1474.95C982.201 1548.38 1268.68 1428.59 1409.21 1182.88L1211.55 1067.68C1140.17 1196.65 1005.39 1276.58 859.148 1276.65C636.03 1276.65 455.158 1093.9 455.158 868.462C455.158 760.191 497.722 656.365 573.487 579.814C649.252 503.263 752.011 460.259 859.158 460.262C1005.95 460.458 1141.09 541.093 1212.14 670.882L1409.21 556.022C1302.51 369.464 1108.4 251.28 895.158 243.052L895.158 243.07Z" id="GCentral-Logo" fill="url(#gradient_1)" fill-rule="evenodd" stroke="none" />
</svg>