<?xml version="1.0" encoding="UTF-8"?>
<svg width="256px" height="256px" viewBox="-148 -148 296 296" version="1.1" xmlns="http://www.w3.org/2000/svg" xmlns:xlink="http://www.w3.org/1999/xlink">
  <title>GLA-logo</title>
  <g stroke="none" fill="url(#linearGradient-1)">
    <defs>
      <pattern>
        <linearGradient x1="0%" y1="2.54987757%" x2="101.999998%" y2="98.399124%" id="linearGradient-1">
          <stop stop-color="#3023AE" offset="0%"></stop>
          <stop stop-color="#C86DD7" offset="100%"></stop>
        </linearGradient>
      </pattern>
      <path id="top-curve-rel" d="M-35.895264,-93.159198 c27.385,-10.512,54.08,-9.334,80.086,3.535 c23.422,11.718,39.791,29.713,49.109,53.986 c-13.946,-11.224,-30.216,-16.404,-48.811,-15.54 c-27.893,1.297,-47.324,20.309,-55.298,23.37 c-18.046,6.927,-38.291,-2.087,-45.218,-20.133 c-6.928,-18.046,2.086,-38.291,20.132,-45.218 z" />
      <circle id="top-circle-rel" cx="0.3" cy="-122.2" r="17" />
      <mask id="gla-mask">
        <g id="mask-group" fill="white" stroke="none" maskContentUnits="objectBoundingBox">
          <g>
            <use xlink:href="#top-circle-rel" />
            <use xlink:href="#top-circle-rel" transform="rotate(120,0,0)" />
            <use xlink:href="#top-circle-rel" transform="rotate(240,0,0)" />
            <animateTransform attributeName="transform" attributeType="XML" type="rotate" from="0 0 0" to="360 0 0" dur="20s" repeatCount="indefinite" />
            <!-- <animateTransform attributeName="transform" attributeType="XML" type="rotate" from="360 0 0" to="0 0 0" dur="20s" repeatCount="indefinite" /> -->
          </g>
          <g>
            <use xlink:href="#top-curve-rel" />
            <use xlink:href="#top-curve-rel" transform="rotate(120,0,0)" />
            <use xlink:href="#top-curve-rel" transform="rotate(240,0,0)" />
          </g>
        </g>
      </mask>
    </defs>
    <g id="borders">
        <rect fill="white" width="296" height="296" x="-148" y="-148" mask="url(#gla-mask)" transform="scale(1.01, 1.01)"/>
    </g>
    <rect fill="url(#linearGradient-1)" width="296" height="296" x="-148" y="-148" mask="url(#gla-mask)" >
      <!-- <animateTransform attributeName="transform" attributeType="XML" type="rotate" from="0 0 0" to="360 0 0" dur="30s" repeatCount="indefinite" /> -->
    </rect>
    <!-- <rect fill="none" stroke="black" width="296" height="296" x="-148" y="-148" /> -->
  </g>
</svg>