<svg width="96" height="96" xmlns="http://www.w3.org/2000/svg" xmlns:xlink="http://www.w3.org/1999/xlink" xml:space="preserve" overflow="hidden"><defs><clipPath id="clip0"><rect x="508" y="30" width="96" height="96"/></clipPath></defs><g clip-path="url(#clip0)" transform="translate(-508 -30)" fill="grey"><path d="M584 52 584 88 528 88 528 52ZM592 90 590 90 590 49 592 49C593.105 49 594 48.1046 594 47 594 45.8954 593.105 45 592 45L558 45 558 43C558 41.8954 557.105 41 556 41 554.895 41 554 41.8954 554 43L554 45 520 45C518.895 45 518 45.8954 518 47 518 48.1046 518.895 49 520 49L522 49 522 90 520 90C518.895 90 518 90.8954 518 92 518 93.1046 518.895 94 520 94L550.54 94 535.14 109.4C534.359 110.19 534.365 111.464 535.155 112.245 535.945 113.026 537.219 113.02 538 112.23L554 96.23 554 114C554 115.105 554.895 116 556 116 557.105 116 558 115.105 558 114L558 96.2 574 112.2C574.781 112.981 576.049 112.981 576.83 112.2 577.612 111.419 577.612 110.151 576.83 109.37L561.46 94 592 94C593.105 94 594 93.1046 594 92 594 90.8954 593.105 90 592 90Z"/><path d="M564 56 572 56 572 84 564 84Z"/><path d="M552 65 560 65 560 84 552 84Z"/><path d="M540 72 548 72 548 84 540 84Z"/></g></svg>